<svg width="21" height="21" viewBox="0 0 21 21" fill="none" xmlns="http://www.w3.org/2000/svg">
<path fill-rule="evenodd" clip-rule="evenodd" d="M13.5192 0.0798914C12.5597 0.284379 11.695 0.960116 11.2587 1.84633C10.7798 2.81883 10.8435 4.06988 11.4179 4.97981C11.5181 5.13843 11.6001 5.28675 11.6001 5.30938C11.6001 5.33202 10.2164 6.70607 8.52522 8.36281L5.45037 11.3751L4.99562 11.1347C2.8895 10.0217 0.376355 11.2269 0.0362542 13.5131C-0.232404 15.3192 1.02087 16.9878 2.84116 17.2478L3.32793 17.3173L3.39883 17.7942C3.72683 19.9988 6.16187 21.2241 8.22998 20.2252C9.95945 19.3898 10.5972 17.2083 9.58207 15.6005C9.4819 15.4418 9.39995 15.2935 9.39995 15.2709C9.39995 15.2483 10.7888 13.8692 12.4862 12.2063C15.2172 9.53087 15.5847 9.19147 15.6794 9.25704C16.8217 10.0482 18.3757 10.063 19.5571 9.29405C20.5944 8.61879 21.1515 7.35025 20.9641 6.09009C20.7525 4.66838 19.6019 3.5345 18.1655 3.33241L17.6721 3.26301L17.6012 2.78607C17.3207 0.900955 15.4586 -0.333575 13.5192 0.0798914Z" fill="#F65150"/>
</svg>
