<svg width="51" height="37" viewBox="0 0 51 37" fill="none" xmlns="http://www.w3.org/2000/svg">
<path fill-rule="evenodd" clip-rule="evenodd" d="M4.2502 0.797356C2.71464 1.30637 1.52274 2.37962 0.861467 3.8491L0.440674 4.78427V18.7581V32.7319L0.861467 33.6671C1.38464 34.8294 2.39417 35.8749 3.53591 36.4367L4.40893 36.8661H25.4407H46.4724L47.37 36.4278C48.4858 35.8827 49.4893 34.8309 50.0285 33.6414L50.4407 32.7319V18.7581V4.78427L50.0204 3.85026C49.4851 2.66092 48.5105 1.64554 47.3689 1.08791L46.4724 0.650011L25.6788 0.618425C9.21845 0.593454 4.75274 0.630828 4.2502 0.797356ZM48.2978 11.3164V14.1277H25.4407H2.58353V11.3164V8.50511H25.4407H48.2978V11.3164ZM25.4407 18.7581V19.9157H16.7105H7.98036V18.7581V17.6005H16.7105H25.4407V18.7581Z" fill="#FF9A03"/>
</svg>
