<svg width="43" height="43" viewBox="0 0 43 43" fill="none" xmlns="http://www.w3.org/2000/svg">
<path fill-rule="evenodd" clip-rule="evenodd" d="M0 2.23237V4.46474L2.30756 4.55214L4.61482 4.63954L8.13362 12.9922L11.6521 21.3452L10.177 23.7614C9.36562 25.0904 8.62431 26.4846 8.52984 26.8597C8.03794 28.8098 9.65715 31.4591 11.6828 32.0188C12.3534 32.2041 17.8925 32.3245 25.7983 32.3254L38.8103 32.3272V30.2319V28.1366H25.8913C18.7857 28.1366 12.9145 28.0354 12.8435 27.9121C12.7728 27.7885 13.3053 26.7786 14.0271 25.6672L15.3394 23.6467L23.9911 23.6446C31.9111 23.6428 32.7144 23.5958 33.4894 23.0876C34.6176 22.3473 35.0848 21.6155 39.3612 13.8896C43.1062 7.12365 43.5464 5.89402 42.525 5.05022C42.1218 4.71737 38.9171 4.61111 25.6217 4.48988L9.21579 4.34022L8.33338 2.17011L7.45128 0H3.72549H0V2.23237ZM11.1377 34.9468C9.70619 35.6622 8.7245 37.2032 8.726 38.7321C8.72901 42.0202 12.518 44.126 15.2395 42.3519C17.2243 41.0582 17.7974 37.9293 16.3608 36.2307C14.8352 34.4266 13.0541 33.9887 11.1377 34.9468ZM32.616 34.9885C31.072 35.9253 30.3864 37.0299 30.3876 38.5786C30.3903 41.9334 33.4936 43.9811 36.3659 42.5234C37.9228 41.7332 38.8076 40.3598 38.8091 38.7321C38.8121 35.6093 35.1958 33.4233 32.616 34.9885Z" fill="white"/>
</svg>
