<svg width="286" height="258" viewBox="0 0 286 258" fill="none" xmlns="http://www.w3.org/2000/svg">
<path fill-rule="evenodd" clip-rule="evenodd" d="M94.928 0.475272C77.135 4.13627 64.4811 24.8103 64.5881 50.0463C64.6761 70.8193 73.031 88.2313 86.794 96.3223C90.857 98.7103 92.475 99.0463 99.928 99.0463C107.346 99.0463 109.008 98.7053 112.986 96.3673C126.747 88.2763 135.18 70.7453 135.268 50.0463C135.338 33.4723 130.309 19.2683 121.035 9.84727C113.432 2.12227 103.773 -1.34473 94.928 0.475272ZM180.928 0.475272C163.135 4.13627 150.481 24.8103 150.588 50.0463C150.676 70.8193 159.031 88.2313 172.794 96.3223C176.857 98.7103 178.475 99.0463 185.928 99.0463C193.346 99.0463 195.008 98.7053 198.986 96.3673C212.747 88.2763 221.18 70.7453 221.268 50.0463C221.338 33.4723 216.309 19.2683 207.035 9.84727C199.432 2.12227 189.773 -1.34473 180.928 0.475272ZM28.928 79.4223C19.868 82.4033 11.182 90.1643 6.44705 99.5093C-6.93195 125.91 1.42905 164.242 23.065 175.701C29.301 179.003 41.555 179.003 47.791 175.701C61.439 168.473 70.928 149.134 70.928 128.546C70.928 101.992 56.0121 80.1983 36.9911 78.9613C33.9311 78.7623 30.303 78.9693 28.928 79.4223ZM243.928 79.4223C234.868 82.4033 226.182 90.1643 221.447 99.5093C208.068 125.91 216.429 164.242 238.065 175.701C244.301 179.003 256.555 179.003 262.791 175.701C276.439 168.473 285.928 149.134 285.928 128.546C285.928 101.992 271.012 80.1983 251.991 78.9613C248.931 78.7623 245.303 78.9693 243.928 79.4223ZM132.952 123.149C116.758 127.501 105.961 140.472 104.003 157.926C103.532 162.127 102.417 166.677 101.525 168.039C99.781 170.699 99.42 170.814 87.628 172.452C68.767 175.071 54.661 188.07 50.869 206.327C46.905 225.41 56.727 244.638 74.928 253.425C82.026 256.852 82.965 257.045 92.428 257.027C103.593 257.006 106.96 256.118 123.928 248.726C133.681 244.476 135.032 244.151 142.928 244.149C150.944 244.147 152.083 244.434 162.928 249.173C178.407 255.937 182.78 257.046 193.981 257.046C202.973 257.046 203.97 256.83 210.981 253.364C230.15 243.886 239.604 224.078 234.433 204.226C232.238 195.798 229.361 190.817 223.053 184.524C216.105 177.592 208.456 173.872 198.228 172.452C186.436 170.814 186.075 170.699 184.331 168.039C183.439 166.677 182.327 162.152 181.859 157.983C179.863 140.18 169.09 127.39 152.468 123.088C145.19 121.205 140.128 121.221 132.952 123.149Z" fill="#FF9A03"/>
</svg>
