<svg width="51" height="55" viewBox="0 0 51 55" fill="none" xmlns="http://www.w3.org/2000/svg">
<path fill-rule="evenodd" clip-rule="evenodd" d="M23.038 1.16964C22.45 1.29212 21.2674 1.72927 20.41 2.14131C19.1388 2.75226 18.6069 3.12929 17.5276 4.18459C15.2885 6.37401 14.3544 8.56647 14.2006 11.9943L14.1092 14.0329H9.69947H5.28977L5.19947 14.5526C5.10276 15.1098 0.505066 54.3767 0.505066 54.6454C0.505066 54.7518 8.89174 54.8057 25.5051 54.8057C41.6385 54.8057 50.5051 54.7504 50.5051 54.6498C50.5051 54.3865 45.9059 15.1067 45.8102 14.5526L45.7204 14.0329H42.4385H39.1564V17.3029C39.1564 19.1014 39.0789 20.9237 38.9843 21.3527C38.6524 22.8574 37.2751 23.9463 35.7037 23.9463C34.6065 23.9463 33.9437 23.6585 33.2031 22.8606C31.948 21.5084 31.9995 19.703 33.3297 18.4098C34.4432 17.3273 34.5511 17.4123 34.5511 19.3716C34.5511 20.7478 34.6031 21.0952 34.8544 21.397C35.2732 21.8997 36.1381 21.8918 36.5631 21.3816C36.8641 21.0202 36.8763 20.7379 36.8179 15.4788C36.7574 10.0488 36.7493 9.935 36.3335 8.72972C34.398 3.11986 28.8429 -0.0388354 23.038 1.16964ZM28.5478 3.6264C31.3322 4.59264 33.6169 7.08202 34.2983 9.89215C34.4347 10.4547 34.5473 11.6166 34.5487 12.4739L34.5511 14.0329H26.6564H18.7616L18.7607 17.5106C18.7602 19.4688 18.6835 21.2551 18.5853 21.5992C18.3727 22.3435 17.3891 23.4382 16.6699 23.7309C16.3787 23.8494 15.7653 23.9463 15.3064 23.9463C12.6556 23.9463 11.0952 21.1378 12.5098 18.9125C12.846 18.3838 13.6967 17.7127 14.033 17.7111C14.1008 17.7108 14.1564 18.458 14.1564 19.3716C14.1564 20.7478 14.2084 21.0952 14.4597 21.397C14.872 21.892 15.7434 21.892 16.1557 21.397C16.436 21.0604 16.4592 20.6499 16.4615 15.9739C16.4641 10.4209 16.5549 9.67277 17.4304 7.98654C18.5967 5.74051 20.6817 4.09953 23.2689 3.3912C24.4873 3.05766 27.2656 3.18142 28.5478 3.6264Z" fill="#FF9A03"/>
</svg>
