<svg width="142" height="52" viewBox="0 0 142 52" fill="none" xmlns="http://www.w3.org/2000/svg">
<path d="M19.5986 20.944C19.5986 22.2382 19.2874 23.4515 18.6651 24.584C18.0658 25.7164 17.1092 26.6293 15.7954 27.3227C14.5046 28.016 12.868 28.3627 10.8857 28.3627H6.84049V37.6533H2V13.456H10.8857C12.7528 13.456 14.3432 13.7795 15.6571 14.4267C16.9709 15.0738 17.9506 15.9635 18.5959 17.096C19.2644 18.2284 19.5986 19.5111 19.5986 20.944ZM10.6783 24.4453C12.0152 24.4453 13.0063 24.1449 13.6517 23.544C14.2971 22.92 14.6198 22.0533 14.6198 20.944C14.6198 18.5867 13.306 17.408 10.6783 17.408H6.84049V24.4453H10.6783ZM40.8414 27.6347C40.8414 28.328 40.7953 28.952 40.7031 29.5067H26.7003C26.8155 30.8933 27.2996 31.9795 28.1524 32.7653C29.0053 33.5511 30.054 33.944 31.2987 33.944C33.0966 33.944 34.3759 33.1698 35.1366 31.6213H40.3574C39.8042 33.4702 38.7439 34.9955 37.1765 36.1973C35.6091 37.376 33.6844 37.9653 31.4025 37.9653C29.5585 37.9653 27.8989 37.5609 26.4237 36.752C24.9715 35.92 23.8306 34.7529 23.0008 33.2507C22.194 31.7484 21.7906 30.0151 21.7906 28.0507C21.7906 26.0631 22.194 24.3182 23.0008 22.816C23.8075 21.3138 24.937 20.1582 26.3891 19.3493C27.8413 18.5404 29.5124 18.136 31.4025 18.136C33.2234 18.136 34.8484 18.5289 36.2775 19.3147C37.7297 20.1004 38.8476 21.2213 39.6313 22.6773C40.438 24.1102 40.8414 25.7627 40.8414 27.6347ZM35.828 26.248C35.805 25 35.3555 24.0062 34.4796 23.2667C33.6037 22.504 32.5319 22.1227 31.2642 22.1227C30.0656 22.1227 29.0514 22.4924 28.2216 23.232C27.4148 23.9484 26.9193 24.9538 26.7349 26.248H35.828ZM50.0102 22.4347V31.7253C50.0102 32.3724 50.1601 32.8462 50.4597 33.1467C50.7824 33.424 51.3126 33.5627 52.0502 33.5627H54.2975V37.6533H51.2549C47.1751 37.6533 45.1352 35.6658 45.1352 31.6907V22.4347H42.8532V18.448H45.1352V13.6987H50.0102V18.448H54.2975V22.4347H50.0102Z" fill="white"/>
<path fill-rule="evenodd" clip-rule="evenodd" d="M72.6808 17.3733V13.456H57.779V37.6533H62.6195V27.4267H70.3297V23.5787H62.6195V17.3733H72.6808ZM79.6398 36.752C81.115 37.5609 82.7746 37.9653 84.6186 37.9653C86.4856 37.9653 88.1683 37.5609 89.6665 36.752C91.1878 35.92 92.3864 34.7529 93.2623 33.2507C94.1613 31.7484 94.6107 30.0151 94.6107 28.0507C94.6107 26.1144 94.1853 24.4027 93.3343 22.9155C92.9439 23.2481 92.4331 23.4496 91.874 23.4496C90.6474 23.4496 89.6531 22.4796 89.6531 21.2829C89.6531 21.2362 89.6546 21.1898 89.6576 21.1438C89.4136 21.2337 89.149 21.2829 88.8727 21.2829C87.6462 21.2829 86.6518 20.3129 86.6518 19.1163C86.6518 18.8352 86.7066 18.5667 86.8064 18.3204C86.1488 18.1975 85.4656 18.136 84.7569 18.136C82.9129 18.136 81.2418 18.552 79.7435 19.384C78.2453 20.1929 77.0582 21.3484 76.1823 22.8507C75.3295 24.3529 74.903 26.0862 74.903 28.0507C74.903 30.0151 75.3179 31.7484 76.1477 33.2507C77.0006 34.7529 78.1646 35.92 79.6398 36.752ZM87.0734 33.112C86.3128 33.528 85.4945 33.736 84.6186 33.736C83.2356 33.736 82.0831 33.2507 81.1611 32.28C80.2622 31.2862 79.8127 29.8764 79.8127 28.0507C79.8127 26.2249 80.2737 24.8267 81.1957 23.856C82.1407 22.8622 83.3047 22.3653 84.6877 22.3653C86.0707 22.3653 87.2348 22.8622 88.1798 23.856C89.1479 24.8267 89.632 26.2249 89.632 28.0507C89.632 29.2756 89.4015 30.3156 88.9405 31.1707C88.4795 32.0258 87.8571 32.6729 87.0734 33.112ZM101.688 36.752C103.163 37.5609 104.823 37.9653 106.667 37.9653C108.534 37.9653 110.217 37.5609 111.715 36.752C113.236 35.92 114.435 34.7529 115.311 33.2507C116.209 31.7484 116.659 30.0151 116.659 28.0507C116.659 26.0862 116.221 24.3529 115.345 22.8507C114.492 21.3484 113.317 20.1929 111.818 19.384C110.32 18.552 108.649 18.136 106.805 18.136C104.961 18.136 103.29 18.552 101.792 19.384C100.294 20.1929 99.1064 21.3484 98.2305 22.8507C97.3777 24.3529 96.9513 26.0862 96.9513 28.0507C96.9513 30.0151 97.3662 31.7484 98.196 33.2507C99.0488 34.7529 100.213 35.92 101.688 36.752ZM109.122 33.112C108.361 33.528 107.543 33.736 106.667 33.736C105.284 33.736 104.131 33.2507 103.209 32.28C102.31 31.2862 101.861 29.8764 101.861 28.0507C101.861 26.2249 102.322 24.8267 103.244 23.856C104.189 22.8622 105.353 22.3653 106.736 22.3653C108.119 22.3653 109.283 22.8622 110.228 23.856C111.196 24.8267 111.68 26.2249 111.68 28.0507C111.68 29.2756 111.45 30.3156 110.989 31.1707C110.528 32.0258 109.905 32.6729 109.122 33.112ZM120.105 22.816C119.345 24.3182 118.965 26.04 118.965 27.9813C118.965 29.9458 119.345 31.6907 120.105 33.216C120.889 34.7182 121.949 35.8853 123.287 36.7173C124.624 37.5493 126.098 37.9653 127.712 37.9653C129.142 37.9653 130.397 37.6764 131.482 37.0987C132.564 36.5209 133.406 35.7582 134.005 34.8107V37.6533H138.915V12H134.005V21.1173C133.336 20.216 132.437 19.4996 131.309 18.968C130.179 18.4133 128.992 18.136 127.747 18.136C126.11 18.136 124.624 18.5404 123.287 19.3493C121.949 20.1582 120.889 21.3138 120.105 22.816ZM133.348 25.0347C133.809 25.8667 134.04 26.872 134.04 28.0507C134.04 29.2293 133.809 30.2462 133.348 31.1013C132.887 31.9333 132.264 32.5805 131.482 33.0427C130.698 33.4818 129.856 33.7013 128.957 33.7013C128.082 33.7013 127.251 33.4702 126.468 33.008C125.707 32.5458 125.085 31.8871 124.6 31.032C124.139 30.1538 123.909 29.1369 123.909 27.9813C123.909 26.8258 124.139 25.832 124.6 25C125.085 24.1449 125.707 23.4978 126.468 23.0587C127.228 22.6196 128.058 22.4 128.957 22.4C129.856 22.4 130.698 22.6311 131.482 23.0933C132.264 23.5324 132.887 24.1796 133.348 25.0347Z" fill="#FF9A03"/>
</svg>
