<svg width="142" height="26" viewBox="0 0 142 26" fill="none" xmlns="http://www.w3.org/2000/svg">
<path d="M19.5986 8.94399C19.5986 10.2382 19.2874 11.4515 18.6651 12.584C18.0658 13.7164 17.1092 14.6293 15.7954 15.3227C14.5046 16.016 12.868 16.3627 10.8857 16.3627H6.84049V25.6533H2V1.45599H10.8857C12.7528 1.45599 14.3432 1.77955 15.6571 2.42666C16.9709 3.07377 17.9506 3.96355 18.5959 5.09599C19.2644 6.22844 19.5986 7.51111 19.5986 8.94399ZM10.6783 12.4453C12.0152 12.4453 13.0063 12.1449 13.6517 11.544C14.2971 10.92 14.6198 10.0533 14.6198 8.94399C14.6198 6.58666 13.306 5.40799 10.6783 5.40799H6.84049V12.4453H10.6783ZM40.8414 15.6347C40.8414 16.328 40.7953 16.952 40.7031 17.5067H26.7003C26.8155 18.8933 27.2996 19.9795 28.1524 20.7653C29.0053 21.5511 30.054 21.944 31.2987 21.944C33.0966 21.944 34.3759 21.1698 35.1366 19.6213H40.3574C39.8042 21.4702 38.7439 22.9955 37.1765 24.1973C35.6091 25.376 33.6844 25.9653 31.4025 25.9653C29.5585 25.9653 27.8989 25.5609 26.4237 24.752C24.9715 23.92 23.8306 22.7529 23.0008 21.2507C22.194 19.7484 21.7906 18.0151 21.7906 16.0507C21.7906 14.0631 22.194 12.3182 23.0008 10.816C23.8075 9.31377 24.937 8.15822 26.3891 7.34933C27.8413 6.54044 29.5124 6.13599 31.4025 6.13599C33.2234 6.13599 34.8484 6.52888 36.2775 7.31466C37.7297 8.10044 38.8476 9.22133 39.6313 10.6773C40.438 12.1102 40.8414 13.7627 40.8414 15.6347ZM35.828 14.248C35.805 13 35.3555 12.0062 34.4796 11.2667C33.6037 10.504 32.5319 10.1227 31.2642 10.1227C30.0656 10.1227 29.0514 10.4924 28.2216 11.232C27.4148 11.9484 26.9193 12.9538 26.7349 14.248H35.828ZM50.0102 10.4347V19.7253C50.0102 20.3724 50.1601 20.8462 50.4597 21.1467C50.7824 21.424 51.3126 21.5627 52.0502 21.5627H54.2975V25.6533H51.2549C47.1751 25.6533 45.1352 23.6658 45.1352 19.6907V10.4347H42.8532V6.44799H45.1352V1.69866H50.0102V6.44799H54.2975V10.4347H50.0102Z" fill="#432A2A"/>
<path fill-rule="evenodd" clip-rule="evenodd" d="M72.6808 5.37334V1.456H57.779V25.6533H62.6195V15.4267H70.3297V11.5787H62.6195V5.37334H72.6808ZM79.6398 24.752C81.115 25.5609 82.7746 25.9653 84.6186 25.9653C86.4856 25.9653 88.1683 25.5609 89.6665 24.752C91.1878 23.92 92.3864 22.7529 93.2623 21.2507C94.1613 19.7484 94.6107 18.0151 94.6107 16.0507C94.6107 14.1144 94.1853 12.4027 93.3343 10.9155C92.9439 11.2481 92.4331 11.4496 91.874 11.4496C90.6474 11.4496 89.6531 10.4796 89.6531 9.28294C89.6531 9.23618 89.6546 9.18977 89.6576 9.14375C89.4136 9.2337 89.149 9.28292 88.8727 9.28292C87.6462 9.28292 86.6518 8.31287 86.6518 7.11625C86.6518 6.83525 86.7066 6.56674 86.8064 6.32035C86.1488 6.19745 85.4656 6.136 84.7569 6.136C82.9129 6.136 81.2418 6.552 79.7435 7.384C78.2453 8.19289 77.0582 9.34845 76.1823 10.8507C75.3295 12.3529 74.903 14.0862 74.903 16.0507C74.903 18.0151 75.3179 19.7484 76.1477 21.2507C77.0006 22.7529 78.1646 23.92 79.6398 24.752ZM87.0734 21.112C86.3128 21.528 85.4945 21.736 84.6186 21.736C83.2356 21.736 82.0831 21.2507 81.1611 20.28C80.2622 19.2862 79.8127 17.8764 79.8127 16.0507C79.8127 14.2249 80.2737 12.8267 81.1957 11.856C82.1407 10.8622 83.3047 10.3653 84.6877 10.3653C86.0707 10.3653 87.2348 10.8622 88.1798 11.856C89.1479 12.8267 89.632 14.2249 89.632 16.0507C89.632 17.2756 89.4015 18.3156 88.9405 19.1707C88.4795 20.0258 87.8571 20.6729 87.0734 21.112ZM101.688 24.752C103.163 25.5609 104.823 25.9653 106.667 25.9653C108.534 25.9653 110.217 25.5609 111.715 24.752C113.236 23.92 114.435 22.7529 115.311 21.2507C116.209 19.7484 116.659 18.0151 116.659 16.0507C116.659 14.0862 116.221 12.3529 115.345 10.8507C114.492 9.34845 113.317 8.19289 111.818 7.384C110.32 6.552 108.649 6.136 106.805 6.136C104.961 6.136 103.29 6.552 101.792 7.384C100.294 8.19289 99.1064 9.34845 98.2305 10.8507C97.3777 12.3529 96.9513 14.0862 96.9513 16.0507C96.9513 18.0151 97.3662 19.7484 98.196 21.2507C99.0488 22.7529 100.213 23.92 101.688 24.752ZM109.122 21.112C108.361 21.528 107.543 21.736 106.667 21.736C105.284 21.736 104.131 21.2507 103.209 20.28C102.31 19.2862 101.861 17.8764 101.861 16.0507C101.861 14.2249 102.322 12.8267 103.244 11.856C104.189 10.8622 105.353 10.3653 106.736 10.3653C108.119 10.3653 109.283 10.8622 110.228 11.856C111.196 12.8267 111.68 14.2249 111.68 16.0507C111.68 17.2756 111.45 18.3156 110.989 19.1707C110.528 20.0258 109.905 20.6729 109.122 21.112ZM120.105 10.816C119.345 12.3182 118.965 14.04 118.965 15.9813C118.965 17.9458 119.345 19.6907 120.105 21.216C120.889 22.7182 121.949 23.8853 123.287 24.7173C124.624 25.5493 126.098 25.9653 127.712 25.9653C129.142 25.9653 130.397 25.6764 131.482 25.0987C132.564 24.5209 133.406 23.7582 134.005 22.8107V25.6533H138.915V0H134.005V9.11733C133.336 8.216 132.437 7.49956 131.309 6.968C130.179 6.41334 128.992 6.136 127.747 6.136C126.11 6.136 124.624 6.54045 123.287 7.34934C121.949 8.15823 120.889 9.31378 120.105 10.816ZM133.348 13.0347C133.809 13.8667 134.04 14.872 134.04 16.0507C134.04 17.2293 133.809 18.2462 133.348 19.1013C132.887 19.9333 132.264 20.5805 131.482 21.0427C130.698 21.4818 129.856 21.7013 128.957 21.7013C128.082 21.7013 127.251 21.4702 126.468 21.008C125.707 20.5458 125.085 19.8871 124.6 19.032C124.139 18.1538 123.909 17.1369 123.909 15.9813C123.909 14.8258 124.139 13.832 124.6 13C125.085 12.1449 125.707 11.4978 126.468 11.0587C127.228 10.6196 128.058 10.4 128.957 10.4C129.856 10.4 130.698 10.6311 131.482 11.0933C132.264 11.5324 132.887 12.1796 133.348 13.0347Z" fill="#FF9A03"/>
</svg>
