<svg width="142" height="52" viewBox="0 0 142 52" fill="none" xmlns="http://www.w3.org/2000/svg">
<path d="M19.9844 21.4481C19.9844 22.7423 19.6732 23.9556 19.0508 25.0881C18.4515 26.2205 17.495 27.1334 16.1811 27.8267C14.8903 28.5201 13.2538 28.8667 11.2715 28.8667H7.22623V38.1574H2.38574V13.9601H11.2715C13.1385 13.9601 14.729 14.2836 16.0428 14.9307C17.3567 15.5778 18.3363 16.4676 18.9817 17.6001C19.6501 18.7325 19.9844 20.0152 19.9844 21.4481ZM11.064 24.9494C12.4009 24.9494 13.3921 24.649 14.0375 24.0481C14.6829 23.4241 15.0056 22.5574 15.0056 21.4481C15.0056 19.0907 13.6917 17.9121 11.064 17.9121H7.22623V24.9494H11.064ZM41.2272 28.1387C41.2272 28.8321 41.1811 29.4561 41.0889 30.0107H27.086C27.2013 31.3974 27.6853 32.4836 28.5382 33.2694C29.391 34.0552 30.4398 34.4481 31.6845 34.4481C33.4824 34.4481 34.7616 33.6738 35.5223 32.1254H40.7431C40.1899 33.9743 39.1296 35.4996 37.5622 36.7014C35.9948 37.8801 34.0701 38.4694 31.7882 38.4694C29.9442 38.4694 28.2846 38.065 26.8094 37.2561C25.3573 36.4241 24.2163 35.257 23.3865 33.7547C22.5798 32.2525 22.1764 30.5192 22.1764 28.5547C22.1764 26.5672 22.5798 24.8223 23.3865 23.3201C24.1933 21.8178 25.3227 20.6623 26.7748 19.8534C28.227 19.0445 29.8981 18.6401 31.7882 18.6401C33.6092 18.6401 35.2342 19.033 36.6633 19.8187C38.1154 20.6045 39.2333 21.7254 40.017 23.1814C40.8238 24.6143 41.2272 26.2667 41.2272 28.1387ZM36.2138 26.7521C36.1907 25.5041 35.7413 24.5103 34.8654 23.7707C33.9895 23.0081 32.9177 22.6267 31.6499 22.6267C30.4513 22.6267 29.4371 22.9965 28.6073 23.7361C27.8006 24.4525 27.305 25.4578 27.1206 26.7521H36.2138ZM50.396 22.9387V32.2294C50.396 32.8765 50.5458 33.3503 50.8455 33.6507C51.1682 33.9281 51.6983 34.0667 52.4359 34.0667H54.6833V38.1574H51.6407C47.5608 38.1574 45.5209 36.1698 45.5209 32.1947V22.9387H43.239V18.9521H45.5209V14.2027H50.396V18.9521H54.6833V22.9387H50.396Z" fill="white"/>
<path d="M73.0666 13.9601V17.8774H63.0053V24.0827H70.7155V27.9307H63.0053V38.1574H58.1648V13.9601H73.0666ZM85.0044 38.4694C83.1604 38.4694 81.5008 38.065 80.0256 37.2561C78.5504 36.4241 77.3864 35.257 76.5336 33.7547C75.7038 32.2525 75.2888 30.5192 75.2888 28.5547C75.2888 26.5903 75.7153 24.857 76.5681 23.3547C77.444 21.8525 78.6311 20.697 80.1293 19.8881C81.6276 19.0561 83.2987 18.6401 85.1427 18.6401C86.9867 18.6401 88.6578 19.0561 90.1561 19.8881C91.6543 20.697 92.8298 21.8525 93.6827 23.3547C94.5586 24.857 94.9965 26.5903 94.9965 28.5547C94.9965 30.5192 94.5471 32.2525 93.6481 33.7547C92.7722 35.257 91.5736 36.4241 90.0523 37.2561C88.5541 38.065 86.8714 38.4694 85.0044 38.4694ZM85.0044 34.2401C85.8803 34.2401 86.6986 34.0321 87.4592 33.6161C88.2429 33.177 88.8653 32.5299 89.3263 31.6747C89.7873 30.8196 90.0178 29.7796 90.0178 28.5547C90.0178 26.729 89.5337 25.3307 88.5656 24.3601C87.6206 23.3663 86.4565 22.8694 85.0735 22.8694C83.6906 22.8694 82.5265 23.3663 81.5815 24.3601C80.6595 25.3307 80.1985 26.729 80.1985 28.5547C80.1985 30.3805 80.648 31.7903 81.5469 32.7841C82.4689 33.7547 83.6214 34.2401 85.0044 34.2401ZM107.053 38.4694C105.209 38.4694 103.549 38.065 102.074 37.2561C100.599 36.4241 99.4346 35.257 98.5818 33.7547C97.752 32.2525 97.3371 30.5192 97.3371 28.5547C97.3371 26.5903 97.7635 24.857 98.6163 23.3547C99.4922 21.8525 100.679 20.697 102.178 19.8881C103.676 19.0561 105.347 18.6401 107.191 18.6401C109.035 18.6401 110.706 19.0561 112.204 19.8881C113.703 20.697 114.878 21.8525 115.731 23.3547C116.607 24.857 117.045 26.5903 117.045 28.5547C117.045 30.5192 116.595 32.2525 115.696 33.7547C114.82 35.257 113.622 36.4241 112.101 37.2561C110.602 38.065 108.92 38.4694 107.053 38.4694ZM107.053 34.2401C107.929 34.2401 108.747 34.0321 109.507 33.6161C110.291 33.177 110.913 32.5299 111.374 31.6747C111.835 30.8196 112.066 29.7796 112.066 28.5547C112.066 26.729 111.582 25.3307 110.614 24.3601C109.669 23.3663 108.505 22.8694 107.122 22.8694C105.739 22.8694 104.575 23.3663 103.63 24.3601C102.708 25.3307 102.247 26.729 102.247 28.5547C102.247 30.3805 102.696 31.7903 103.595 32.7841C104.517 33.7547 105.67 34.2401 107.053 34.2401ZM119.351 28.4854C119.351 26.5441 119.731 24.8223 120.491 23.3201C121.275 21.8179 122.335 20.6623 123.673 19.8534C125.01 19.0445 126.496 18.6401 128.133 18.6401C129.377 18.6401 130.565 18.9174 131.694 19.4721C132.823 20.0036 133.722 20.7201 134.391 21.6214V12.5041H139.301V38.1574H134.391V35.3147C133.792 36.2623 132.95 37.025 131.867 37.6027C130.783 38.1805 129.527 38.4694 128.098 38.4694C126.484 38.4694 125.01 38.0534 123.673 37.2214C122.335 36.3894 121.275 35.2223 120.491 33.7201C119.731 32.1947 119.351 30.4499 119.351 28.4854ZM134.426 28.5547C134.426 27.3761 134.195 26.3707 133.734 25.5387C133.273 24.6836 132.65 24.0365 131.867 23.5974C131.083 23.1352 130.242 22.9041 129.343 22.9041C128.443 22.9041 127.614 23.1236 126.854 23.5627C126.093 24.0019 125.471 24.649 124.986 25.5041C124.525 26.3361 124.294 27.3299 124.294 28.4854C124.294 29.641 124.525 30.6579 124.986 31.5361C125.471 32.3912 126.093 33.0499 126.854 33.5121C127.637 33.9743 128.467 34.2054 129.343 34.2054C130.242 34.2054 131.083 33.9859 131.867 33.5467C132.65 33.0845 133.273 32.4374 133.734 31.6054C134.195 30.7503 134.426 29.7334 134.426 28.5547Z" fill="#FF9A03"/>
<path d="M89.2586 21.787C90.4852 21.787 91.4795 20.817 91.4795 19.6204C91.4795 18.4238 90.4852 17.4537 89.2586 17.4537C88.032 17.4537 87.0376 18.4238 87.0376 19.6204C87.0376 20.817 88.032 21.787 89.2586 21.787Z" fill="#432A2A"/>
<path d="M92.2598 23.9537C93.4864 23.9537 94.4807 22.9836 94.4807 21.787C94.4807 20.5904 93.4864 19.6204 92.2598 19.6204C91.0332 19.6204 90.0388 20.5904 90.0388 21.787C90.0388 22.9836 91.0332 23.9537 92.2598 23.9537Z" fill="#432A2A"/>
</svg>
