<svg width="142" height="52" viewBox="0 0 142 52" fill="none" xmlns="http://www.w3.org/2000/svg">
<path d="M19.9843 21.4481C19.9843 22.7423 19.6731 23.9556 19.0508 25.0881C18.4515 26.2205 17.4949 27.1334 16.181 27.8267C14.8903 28.5201 13.2537 28.8667 11.2714 28.8667H7.22615V38.1574H2.38567V13.9601H11.2714C13.1385 13.9601 14.7289 14.2836 16.0427 14.9307C17.3566 15.5778 18.3362 16.4676 18.9816 17.6001C19.6501 18.7325 19.9843 20.0152 19.9843 21.4481ZM11.064 24.9494C12.4009 24.9494 13.392 24.649 14.0374 24.0481C14.6828 23.4241 15.0055 22.5574 15.0055 21.4481C15.0055 19.0907 13.6917 17.9121 11.064 17.9121H7.22615V24.9494H11.064ZM41.2271 28.1387C41.2271 28.8321 41.181 29.4561 41.0888 30.0107H27.0859C27.2012 31.3974 27.6852 32.4836 28.5381 33.2694C29.3909 34.0552 30.4397 34.4481 31.6844 34.4481C33.4823 34.4481 34.7616 33.6738 35.5222 32.1254H40.743C40.1898 33.9743 39.1295 35.4996 37.5621 36.7014C35.9947 37.8801 34.0701 38.4694 31.7881 38.4694C29.9441 38.4694 28.2845 38.065 26.8093 37.2561C25.3572 36.4241 24.2162 35.257 23.3864 33.7547C22.5797 32.2525 22.1763 30.5192 22.1763 28.5547C22.1763 26.5672 22.5797 24.8223 23.3864 23.3201C24.1932 21.8178 25.3226 20.6623 26.7748 19.8534C28.2269 19.0445 29.898 18.6401 31.7881 18.6401C33.6091 18.6401 35.2341 19.033 36.6632 19.8187C38.1153 20.6045 39.2333 21.7254 40.017 23.1814C40.8237 24.6143 41.2271 26.2667 41.2271 28.1387ZM36.2137 26.7521C36.1907 25.5041 35.7412 24.5103 34.8653 23.7707C33.9894 23.0081 32.9176 22.6267 31.6498 22.6267C30.4512 22.6267 29.437 22.9965 28.6072 23.7361C27.8005 24.4525 27.3049 25.4578 27.1205 26.7521H36.2137ZM50.3959 22.9387V32.2294C50.3959 32.8765 50.5457 33.3503 50.8454 33.6507C51.1681 33.9281 51.6982 34.0667 52.4358 34.0667H54.6832V38.1574H51.6406C47.5608 38.1574 45.5208 36.1698 45.5208 32.1947V22.9387H43.2389V18.9521H45.5208V14.2027H50.3959V18.9521H54.6832V22.9387H50.3959Z" fill="white"/>
<path d="M73.0665 13.9601V17.8774H63.0052V24.0827H70.7154V27.9307H63.0052V38.1574H58.1647V13.9601H73.0665ZM85.0043 38.4694C83.1603 38.4694 81.5007 38.065 80.0255 37.2561C78.5503 36.4241 77.3863 35.257 76.5334 33.7547C75.7036 32.2525 75.2887 30.5192 75.2887 28.5547C75.2887 26.5903 75.7152 24.857 76.568 23.3547C77.4439 21.8525 78.631 20.697 80.1292 19.8881C81.6275 19.0561 83.2986 18.6401 85.1426 18.6401C86.9866 18.6401 88.6577 19.0561 90.156 19.8881C91.6542 20.697 92.8297 21.8525 93.6826 23.3547C94.5585 24.857 94.9964 26.5903 94.9964 28.5547C94.9964 30.5192 94.547 32.2525 93.648 33.7547C92.7721 35.257 91.5735 36.4241 90.0522 37.2561C88.554 38.065 86.8713 38.4694 85.0043 38.4694ZM85.0043 34.2401C85.8802 34.2401 86.6985 34.0321 87.4591 33.6161C88.2428 33.177 88.8652 32.5299 89.3262 31.6747C89.7872 30.8196 90.0176 29.7796 90.0176 28.5547C90.0176 26.729 89.5336 25.3307 88.5655 24.3601C87.6205 23.3663 86.4564 22.8694 85.0734 22.8694C83.6904 22.8694 82.5264 23.3663 81.5814 24.3601C80.6594 25.3307 80.1984 26.729 80.1984 28.5547C80.1984 30.3805 80.6479 31.7903 81.5468 32.7841C82.4688 33.7547 83.6213 34.2401 85.0043 34.2401ZM107.053 38.4694C105.209 38.4694 103.549 38.065 102.074 37.2561C100.599 36.4241 99.4345 35.257 98.5817 33.7547C97.7519 32.2525 97.337 30.5192 97.337 28.5547C97.337 26.5903 97.7634 24.857 98.6162 23.3547C99.4921 21.8525 100.679 20.697 102.177 19.8881C103.676 19.0561 105.347 18.6401 107.191 18.6401C109.035 18.6401 110.706 19.0561 112.204 19.8881C113.702 20.697 114.878 21.8525 115.731 23.3547C116.607 24.857 117.045 26.5903 117.045 28.5547C117.045 30.5192 116.595 32.2525 115.696 33.7547C114.82 35.257 113.622 36.4241 112.1 37.2561C110.602 38.065 108.92 38.4694 107.053 38.4694ZM107.053 34.2401C107.928 34.2401 108.747 34.0321 109.507 33.6161C110.291 33.177 110.913 32.5299 111.374 31.6747C111.835 30.8196 112.066 29.7796 112.066 28.5547C112.066 26.729 111.582 25.3307 110.614 24.3601C109.669 23.3663 108.505 22.8694 107.122 22.8694C105.739 22.8694 104.575 23.3663 103.63 24.3601C102.708 25.3307 102.247 26.729 102.247 28.5547C102.247 30.3805 102.696 31.7903 103.595 32.7841C104.517 33.7547 105.67 34.2401 107.053 34.2401ZM119.351 28.4854C119.351 26.5441 119.731 24.8223 120.491 23.3201C121.275 21.8179 122.335 20.6623 123.672 19.8534C125.01 19.0445 126.496 18.6401 128.132 18.6401C129.377 18.6401 130.565 18.9174 131.694 19.4721C132.823 20.0036 133.722 20.7201 134.391 21.6214V12.5041H139.301V38.1574H134.391V35.3147C133.792 36.2623 132.95 37.025 131.867 37.6027C130.783 38.1805 129.527 38.4694 128.098 38.4694C126.484 38.4694 125.01 38.0534 123.672 37.2214C122.335 36.3894 121.275 35.2223 120.491 33.7201C119.731 32.1947 119.351 30.4499 119.351 28.4854ZM134.425 28.5547C134.425 27.3761 134.195 26.3707 133.734 25.5387C133.273 24.6836 132.65 24.0365 131.867 23.5974C131.083 23.1352 130.242 22.9041 129.343 22.9041C128.443 22.9041 127.614 23.1236 126.854 23.5627C126.093 24.0019 125.471 24.649 124.986 25.5041C124.525 26.3361 124.294 27.3299 124.294 28.4854C124.294 29.641 124.525 30.6579 124.986 31.5361C125.471 32.3912 126.093 33.0499 126.854 33.5121C127.637 33.9743 128.467 34.2054 129.343 34.2054C130.242 34.2054 131.083 33.9859 131.867 33.5467C132.65 33.0845 133.273 32.4374 133.734 31.6054C134.195 30.7503 134.425 29.7334 134.425 28.5547Z" fill="#FF9A03"/>
<path d="M89.2584 21.787C90.485 21.787 91.4794 20.817 91.4794 19.6204C91.4794 18.4238 90.485 17.4537 89.2584 17.4537C88.0318 17.4537 87.0375 18.4238 87.0375 19.6204C87.0375 20.817 88.0318 21.787 89.2584 21.787Z" fill="#432A2A"/>
<path d="M92.2597 23.9537C93.4863 23.9537 94.4807 22.9836 94.4807 21.787C94.4807 20.5904 93.4863 19.6204 92.2597 19.6204C91.0331 19.6204 90.0388 20.5904 90.0388 21.787C90.0388 22.9836 91.0331 23.9537 92.2597 23.9537Z" fill="#432A2A"/>
</svg>
