<svg width="50" height="51" viewBox="0 0 50 51" fill="none" xmlns="http://www.w3.org/2000/svg">
<rect y="0.671387" width="50" height="50" rx="25" fill="#F65150"/>
<g clip-path="url(#clip0_166_236)">
<path d="M35 31.5915V34.5915C35.0011 34.87 34.9441 35.1457 34.8325 35.4008C34.7209 35.656 34.5573 35.8851 34.3521 36.0733C34.1468 36.2616 33.9046 36.405 33.6407 36.4942C33.3769 36.5834 33.0974 36.6166 32.82 36.5915C29.7428 36.2571 26.787 35.2056 24.19 33.5215C21.7738 31.9861 19.7253 29.9377 18.19 27.5215C16.5 24.9127 15.4482 21.9425 15.12 18.8515C15.095 18.575 15.1279 18.2962 15.2165 18.0331C15.3051 17.77 15.4476 17.5282 15.6348 17.3231C15.822 17.118 16.0498 16.9542 16.3038 16.842C16.5578 16.7298 16.8323 16.6717 17.11 16.6715H20.11C20.5953 16.6667 21.0658 16.8386 21.4338 17.155C21.8017 17.4715 22.0421 17.9109 22.11 18.3915C22.2366 19.3516 22.4714 20.2942 22.81 21.2015C22.9445 21.5594 22.9737 21.9484 22.8939 22.3224C22.8141 22.6963 22.6289 23.0396 22.36 23.3115L21.09 24.5815C22.5135 27.085 24.5864 29.1579 27.09 30.5815L28.36 29.3115C28.6319 29.0426 28.9751 28.8573 29.3491 28.7776C29.7231 28.6978 30.1121 28.7269 30.47 28.8615C31.3773 29.2 32.3199 29.4349 33.28 29.5615C33.7658 29.63 34.2094 29.8747 34.5265 30.249C34.8437 30.6233 35.0122 31.1011 35 31.5915Z" stroke="white" stroke-width="2" stroke-linecap="round" stroke-linejoin="round"/>
</g>
<defs>
<clipPath id="clip0_166_236">
<rect width="24" height="24" fill="white" transform="translate(13 14.6714)"/>
</clipPath>
</defs>
</svg>
