<svg width="59" height="42" viewBox="0 0 59 42" fill="none" xmlns="http://www.w3.org/2000/svg">
<path fill-rule="evenodd" clip-rule="evenodd" d="M0.518646 2.91905V5.18627H10.9701H21.4215V6.23786V7.28944H10.9701H0.518646V8.42192V9.5544H9.20007H17.8815V10.6869V11.8194H9.20007H0.518646V12.9518V14.0843H7.51436H14.5101V15.1359V16.1875H7.51436H0.518646V17.32V18.4524H5.74436H10.9701V19.5849V20.7174H5.74436H0.518646V27.157V33.5964L0.945637 34.4189C1.21215 34.9321 1.63425 35.4153 2.06849 35.7044C2.76115 36.1655 2.77733 36.1678 5.73997 36.2179L8.7156 36.2682L9.00402 37.1669C9.58846 38.9888 10.8742 40.3838 12.7136 41.1921C16.5349 42.8711 20.9427 40.9732 22.2144 37.1013L22.4944 36.2485H29.4617H36.4291L36.3846 19.5179L36.3401 2.78736L35.8343 2.10027C35.5562 1.72235 35.0252 1.26111 34.6543 1.07522C33.9854 0.740006 33.8469 0.736932 17.2493 0.694545L0.518646 0.651672V2.91905ZM38.7843 22.3352V36.2485L39.4165 36.2487C40.0405 36.249 40.0523 36.261 40.334 37.1789C41.7455 41.7787 47.9162 43.338 51.6045 40.0268C52.5806 39.1507 53.1277 38.3251 53.5343 37.1153L53.814 36.2836L54.9571 36.2216C56.3181 36.1477 57.2309 35.6548 57.9578 34.6009L58.4229 33.9268L58.4708 27.731L58.5186 21.5352L58.0804 20.2769C57.5229 18.6762 56.7473 17.5034 53.665 13.599C51.7771 11.2078 50.9189 10.2596 50.1189 9.68156C48.4957 8.50831 48.0107 8.42192 43.0522 8.42192H38.7843V22.3352ZM47.7785 10.9093C48.7724 11.3078 49.5909 12.1688 52.4128 15.783C55.0097 19.1091 55.7928 20.3128 56.0707 21.405L56.1838 21.8499H50.8648H45.5461L45.0731 21.4596L44.6 21.0693L44.5512 15.8781L44.5023 10.6869H45.863C46.6362 10.6869 47.4632 10.783 47.7785 10.9093ZM17.4636 31.1294C19.664 32.1127 20.6751 34.249 19.9981 36.4841C19.4684 38.2326 17.5051 39.6459 15.6058 39.6459C14.0443 39.6459 12.1735 38.5316 11.45 37.1708C11.0195 36.3606 10.8699 34.9335 11.1221 34.039C11.8579 31.4295 14.9551 30.0082 17.4636 31.1294ZM48.9944 31.1959C50.9168 32.1418 51.9479 34.3558 51.364 36.2836C50.3869 39.5095 46.3948 40.6742 43.8873 38.4649C42.4327 37.1833 41.9621 35.3849 42.6065 33.57C42.9534 32.5927 44.2049 31.3696 45.2273 31.0085C46.2205 30.6578 48.0896 30.7508 48.9944 31.1959Z" fill="#FF9A03"/>
</svg>
